<svg xmlns="http://www.w3.org/2000/svg" xmlns:xlink="http://www.w3.org/1999/xlink" id="Illustration" viewBox="0 0 4158 3804"><defs><style>.cls-1,.cls-4,.cls-6{fill:#9febff;}.cls-1,.cls-2{clip-rule:evenodd;}.cls-2{fill:none;}.cls-3{fill:#ff757e;}.cls-13,.cls-14,.cls-15,.cls-16,.cls-19,.cls-20,.cls-21,.cls-22,.cls-23,.cls-24,.cls-25,.cls-26,.cls-27,.cls-28,.cls-29,.cls-3,.cls-30,.cls-32,.cls-33,.cls-34,.cls-35,.cls-36,.cls-37,.cls-4,.cls-40,.cls-41,.cls-42,.cls-43,.cls-44,.cls-45,.cls-46,.cls-47,.cls-48,.cls-49,.cls-50,.cls-51,.cls-52,.cls-53,.cls-54,.cls-55{fill-rule:evenodd;}.cls-5{clip-path:url(#clip-path);}.cls-7{clip-path:url(#clip-path-2);}.cls-8{fill:url(#linear-gradient);}.cls-9{clip-path:url(#clip-path-3);}.cls-10{fill:url(#linear-gradient-2);}.cls-11{clip-path:url(#clip-path-4);}.cls-12{fill:url(#linear-gradient-3);}.cls-13{fill:#ffa1c7;}.cls-14{fill:url(#linear-gradient-4);}.cls-15{fill:url(#linear-gradient-5);}.cls-16{fill:url(#linear-gradient-6);}.cls-17{clip-path:url(#clip-path-5);}.cls-18{fill:url(#linear-gradient-7);}.cls-19{fill:#c90052;}.cls-20{fill:url(#linear-gradient-8);}.cls-21{fill:url(#linear-gradient-9);}.cls-22{fill:#294291;}.cls-23{fill:url(#linear-gradient-10);}.cls-24{fill:url(#linear-gradient-11);}.cls-25{fill:url(#linear-gradient-12);}.cls-26{fill:url(#linear-gradient-13);}.cls-27{fill:url(#linear-gradient-14);}.cls-28{fill:#999;}.cls-29{fill:url(#linear-gradient-15);}.cls-30{fill:url(#linear-gradient-16);}.cls-31{fill:url(#linear-gradient-17);}.cls-32{fill:url(#linear-gradient-18);}.cls-33{fill:#361d32;}.cls-34{fill:url(#linear-gradient-19);}.cls-35{fill:url(#linear-gradient-20);}.cls-36{fill:url(#linear-gradient-21);}.cls-37{fill:url(#linear-gradient-22);}.cls-38{clip-path:url(#clip-path-6);}.cls-39{fill:url(#linear-gradient-23);}.cls-40{fill:#3d2c3b;}.cls-41{fill:#889db5;}.cls-42,.cls-43,.cls-44,.cls-45,.cls-46,.cls-47,.cls-48,.cls-49,.cls-50,.cls-51{opacity:0.3;}.cls-42{fill:url(#linear-gradient-24);}.cls-43{fill:url(#linear-gradient-25);}.cls-44{fill:url(#linear-gradient-26);}.cls-45{fill:url(#linear-gradient-27);}.cls-46{fill:url(#linear-gradient-28);}.cls-47{fill:url(#linear-gradient-29);}.cls-48{fill:url(#linear-gradient-30);}.cls-49{fill:url(#linear-gradient-31);}.cls-50{fill:url(#linear-gradient-32);}.cls-51{fill:url(#linear-gradient-33);}.cls-52{fill:url(#linear-gradient-34);}.cls-53{fill:url(#linear-gradient-35);}.cls-54{fill:#34b3d1;}.cls-55,.cls-56{fill:#fff;}</style><clipPath id="clip-path"><path class="cls-1" d="M3484.5,1463c73.91,207.51,351.35,449.29,491.27,655.39,398.9,587.6-155.85,943.27-635.13,1053-1009.59,231.19-2386,179.8-2892.63-330.23-633.13-637.38-3.73-1023.38,384.7-1337.11s567.71-328.67,911.33-261.44C2150.61,1322.15,3184,619.19,3484.5,1463"></path></clipPath><clipPath id="clip-path-2"><path class="cls-2" d="M623.5,798.78c.35-.81.72-1.61,1.08-2.41-.36.8-.73,1.6-1.08,2.41m-2.31,5.32c.36-.86.73-1.71,1.09-2.57C621.92,802.39,621.55,803.24,621.19,804.1Zm-2.12,5.24L620,807Zm-2,5.32.81-2.19Zm2.93,1674c-.31-.77-.61-1.56-.93-2.35C619.38,2487.09,619.69,2487.88,620,2488.65Zm2.28,5.46c-.36-.85-.73-1.7-1.09-2.57C621.55,2492.41,621.92,2493.26,622.28,2494.11Zm2.3,5.16-1.08-2.4C623.85,2497.67,624.22,2498.47,624.58,2499.27Zm3018.23,2.82c-38.1,79.92-119.76,135.49-213.78,135.49H839.69c-94,0-175.68-55.58-213.78-135.49l.05.11h3016.8Zm2.41-5.22c-.36.8-.72,1.6-1.09,2.4C3644.5,2498.47,3644.86,2497.67,3645.22,2496.87Zm2.31-5.33c-.36.87-.72,1.72-1.09,2.57C3646.81,2493.26,3647.17,2492.41,3647.53,2491.54Zm2.12-5.24c-.31.79-.63,1.58-.94,2.35C3649,2487.88,3649.34,2487.09,3649.65,2486.3Zm2-5.31c-.26.73-.53,1.45-.8,2.18C3651.11,2482.44,3651.38,2481.72,3651.64,2481Zm-2.93-1674c.31.78.63,1.56.94,2.35C3649.34,808.55,3649,807.77,3648.71,807Zm-2.27-5.46c.37.86.73,1.71,1.09,2.57C3647.17,803.24,3646.81,802.39,3646.44,801.53Zm-2.31-5.16c.37.8.73,1.6,1.09,2.41C3644.86,798,3644.5,797.17,3644.13,796.37ZM839.69,658.07H3429c94,0,175.68,55.57,213.78,135.48l0-.11H626l-.05.11C664,713.64,745.67,658.07,839.69,658.07Z"></path></clipPath><linearGradient id="linear-gradient" x1="2086.58" y1="1123.62" x2="2237.53" y2="2779.8" gradientUnits="userSpaceOnUse"><stop offset="0" stop-color="#1e0b33"></stop><stop offset="1" stop-color="#1e1f5b"></stop></linearGradient><clipPath id="clip-path-3"><path class="cls-2" d="M3303,3179.78c-721.49,158.82-1619.33,174.73-2254-14.85v-645.6a28.11,28.11,0,0,1,28-28H3275a28.1,28.1,0,0,1,28,28Z"></path></clipPath><linearGradient id="linear-gradient-2" x1="2277.47" y1="5047.77" x2="2029.47" y2="-146.85" gradientUnits="userSpaceOnUse"><stop offset="0"></stop><stop offset="1" stop-color="#fff"></stop></linearGradient><clipPath id="clip-path-4"><path class="cls-2" d="M3642.76,793.44a234.6,234.6,0,0,1,22.92,101.27V2400.94a234.56,234.56,0,0,1-22.92,101.26H626A234.42,234.42,0,0,1,603,2400.94V894.71A234.46,234.46,0,0,1,626,793.44Z"></path></clipPath><linearGradient id="linear-gradient-3" x1="2729.17" y1="2918.95" x2="1275.05" y2="-188.54" gradientUnits="userSpaceOnUse"><stop offset="0" stop-color="#e6e6e6"></stop><stop offset="1" stop-color="#fefefe"></stop></linearGradient><linearGradient id="linear-gradient-4" x1="1449.66" y1="1694.55" x2="1687.29" y2="1694.55" gradientUnits="userSpaceOnUse"><stop offset="0" stop-color="#a7623e"></stop><stop offset="1" stop-color="#d68664"></stop></linearGradient><linearGradient id="linear-gradient-5" x1="1587.89" y1="1854.55" x2="1716.98" y2="1854.55" gradientUnits="userSpaceOnUse"><stop offset="0" stop-color="#005de9"></stop><stop offset="1" stop-color="#6adbff"></stop></linearGradient><linearGradient id="linear-gradient-6" x1="3066.31" y1="1679.23" x2="3210.86" y2="1679.23" xlink:href="#linear-gradient-5"></linearGradient><clipPath id="clip-path-5"><path class="cls-2" d="M2533.7,1364.45l36.34,12.84s18.2,5.14,21.95,43.42l5.6,31.28s30.34,28,73.76,43.89,105.36,43.57,144.11,59c0,0,26.85,6.3,35.72,45.52s122,257.55,122,257.55,84-196.09,93.37-211c0,0,21.49,66.76,129.33,85,0,0-131.65,381.89-153.12,417.38s-121.39,43.88-141,.93l-136.33-240-66.29,387.51-644.28-110.18c-92.12,114.74-305.3-53.58-439.33-239.27,0,0-25.44-20.54-.46-40.85s93.37-84.51,93.37-84.51,12.14-18.67,44.82,13.07,139.13,113.46,139.13,113.46,41.08-49.49,43.88-80.31,123.25-281.05,155.93-304.39,137.26-54.16,137.26-54.16,14.95-59.76,32.68-69.1,139.13-91.5,271.54-77"></path></clipPath><linearGradient id="linear-gradient-7" x1="2328.92" y1="1426.36" x2="2470.81" y2="2311.58" gradientUnits="userSpaceOnUse"><stop offset="0" stop-color="#ff0065"></stop><stop offset="1" stop-color="#ff1a8a"></stop></linearGradient><linearGradient id="linear-gradient-8" x1="2225.7" y1="1779.8" x2="2458.81" y2="1779.8" xlink:href="#linear-gradient-5"></linearGradient><linearGradient id="linear-gradient-9" x1="2282.28" y1="1089.59" x2="2338.8" y2="1089.59" xlink:href="#linear-gradient-5"></linearGradient><linearGradient id="linear-gradient-10" x1="2217.85" y1="1008.2" x2="2628.26" y2="1008.2" gradientUnits="userSpaceOnUse"><stop offset="0" stop-color="#1d164d"></stop><stop offset="1" stop-color="#4a4975"></stop></linearGradient><linearGradient id="linear-gradient-11" x1="2292.25" y1="1376.44" x2="2546.26" y2="1376.44" xlink:href="#linear-gradient-4"></linearGradient><linearGradient id="linear-gradient-12" x1="2385.09" y1="1385.98" x2="2487.29" y2="1385.98" gradientUnits="userSpaceOnUse"><stop offset="0" stop-color="#76402a"></stop><stop offset="1" stop-color="#bf7154"></stop></linearGradient><linearGradient id="linear-gradient-13" x1="2543.69" y1="1208.56" x2="2650.06" y2="1208.56" xlink:href="#linear-gradient-5"></linearGradient><linearGradient id="linear-gradient-14" x1="2466.47" y1="1070.37" x2="2672.64" y2="1070.37" xlink:href="#linear-gradient-5"></linearGradient><linearGradient id="linear-gradient-15" x1="3092.39" y1="1520.54" x2="3313.23" y2="1520.54" xlink:href="#linear-gradient-4"></linearGradient><linearGradient id="linear-gradient-16" x1="1374.58" y1="1814.95" x2="1741.15" y2="1814.95" xlink:href="#linear-gradient"></linearGradient><linearGradient id="linear-gradient-17" x1="1332.81" y1="2192.55" x2="1389.83" y2="2192.55" xlink:href="#linear-gradient"></linearGradient><linearGradient id="linear-gradient-18" x1="1284.05" y1="1964.72" x2="1411.04" y2="1964.72" xlink:href="#linear-gradient"></linearGradient><linearGradient id="linear-gradient-19" x1="2856.7" y1="722.38" x2="2920.2" y2="722.38" xlink:href="#linear-gradient-7"></linearGradient><linearGradient id="linear-gradient-20" x1="3010.3" y1="722.38" x2="3073.79" y2="722.38" xlink:href="#linear-gradient-5"></linearGradient><linearGradient id="linear-gradient-21" x1="1159.16" y1="2419.26" x2="1589.62" y2="2419.26" xlink:href="#linear-gradient-5"></linearGradient><linearGradient id="linear-gradient-22" x1="1146.09" y1="2425.49" x2="1576.54" y2="2425.49" xlink:href="#linear-gradient"></linearGradient><clipPath id="clip-path-6"><path class="cls-2" d="M1000.46,2420.36H3351.6a39.33,39.33,0,0,1,39.21,39.21v85.9a39.34,39.34,0,0,1-39.21,39.23H1000.46a39.34,39.34,0,0,1-39.22-39.23v-85.9a39.33,39.33,0,0,1,39.22-39.21"></path></clipPath><linearGradient id="linear-gradient-23" x1="2184.34" y1="2985.47" x2="2167.12" y2="1985.5" xlink:href="#linear-gradient-2"></linearGradient><linearGradient id="linear-gradient-24" x1="1868.77" y1="1526.79" x2="1942.28" y2="1526.79" xlink:href="#linear-gradient"></linearGradient><linearGradient id="linear-gradient-25" x1="1814.66" y1="1555.34" x2="1954.04" y2="1555.34" xlink:href="#linear-gradient"></linearGradient><linearGradient id="linear-gradient-26" x1="1766.84" y1="1581.39" x2="1948.05" y2="1581.39" xlink:href="#linear-gradient"></linearGradient><linearGradient id="linear-gradient-27" x1="1782.83" y1="1618.25" x2="1925.84" y2="1618.25" xlink:href="#linear-gradient"></linearGradient><linearGradient id="linear-gradient-28" x1="1798.62" y1="1652.27" x2="1883.22" y2="1652.27" xlink:href="#linear-gradient"></linearGradient><linearGradient id="linear-gradient-29" x1="1784.2" y1="1557.03" x2="1843.61" y2="1557.03" xlink:href="#linear-gradient"></linearGradient><linearGradient id="linear-gradient-30" x1="1799.99" y1="1579.9" x2="1888.36" y2="1579.9" xlink:href="#linear-gradient"></linearGradient><linearGradient id="linear-gradient-31" x1="1819.65" y1="1603.14" x2="1922.82" y2="1603.14" xlink:href="#linear-gradient"></linearGradient><linearGradient id="linear-gradient-32" x1="1870.69" y1="1608.15" x2="1948.05" y2="1608.15" xlink:href="#linear-gradient"></linearGradient><linearGradient id="linear-gradient-33" x1="1926.39" y1="1623.51" x2="1953.45" y2="1623.51" xlink:href="#linear-gradient"></linearGradient><linearGradient id="linear-gradient-34" x1="1765.2" y1="1608.9" x2="1847.65" y2="1608.9" xlink:href="#linear-gradient"></linearGradient><linearGradient id="linear-gradient-35" x1="1579.71" y1="1654.35" x2="1739.13" y2="1654.35" xlink:href="#linear-gradient"></linearGradient></defs><path class="cls-3" d="M3549.7,2154.56a7.58,7.58,0,0,1-10.27-11.14c.48-.44,166.72-153,242.73-181.73a7.67,7.67,0,0,1,9.72,4.39,7.22,7.22,0,0,1-4.05,9.57c-73.38,27.74-237.66,178.48-238.13,178.91"></path><path class="cls-3" d="M3691,2087.85a7.73,7.73,0,0,1-6.22-8.7,7.14,7.14,0,0,1,8.49-5.92,160.56,160.56,0,0,0,39,1.29,7.78,7.78,0,0,1,8.31,6.79,7.18,7.18,0,0,1-6.51,8.09,176.71,176.71,0,0,1-43.12-1.55"></path><path class="cls-3" d="M3695.52,2030.15a7.16,7.16,0,0,1-8.32,6.17,7.75,7.75,0,0,1-6.44-8.54c0-.13,5.7-44.66,16.7-55.84,4.74-4.8,11.67-8.91,19-13.26,8.46-5,17.53-10.34,22.53-16.53a7.39,7.39,0,0,1,10.47-.89,7.52,7.52,0,0,1,1.26,10.51c-6.6,8.17-16.84,14.22-26.38,19.85-6.53,3.87-12.71,7.51-16.11,11-7.66,7.77-12.73,47.45-12.74,47.56"></path><path class="cls-4" d="M3484.5,1463c73.91,207.51,351.35,449.29,491.27,655.39,398.9,587.6-155.85,943.27-635.13,1053-1009.59,231.19-2386,179.8-2892.63-330.23-633.13-637.38-3.73-1023.38,384.7-1337.11s567.71-328.67,911.33-261.44C2150.61,1322.15,3184,619.19,3484.5,1463"></path><g class="cls-5"><rect class="cls-6" x="-185.12" y="619.19" width="4559.79" height="2783.39"></rect></g><g class="cls-7"><rect class="cls-8" x="617.07" y="658.07" width="3034.57" height="1979.51"></rect></g><g class="cls-9"><rect class="cls-10" x="1049.01" y="2491.31" width="2254.03" height="863.2"></rect></g><g class="cls-11"><rect class="cls-12" x="603.04" y="793.44" width="3062.64" height="1708.76"></rect></g><path class="cls-13" d="M1363.27,421H2070.7c62.75,0,114.1,51.35,114.1,114.11V836.28c0,62.76-51.35,114.11-114.1,114.11h-62.76l58,158.45-220-158.45H1363.27c-62.76,0-114.1-51.35-114.1-114.11V535.06c0-62.76,51.34-114.11,114.1-114.11"></path><path class="cls-14" d="M1608,1862.76s-33.61-36-68.16-56-102.71-34.08-65.36-74.7c0,0-6.53-45.28,22.41-44.81,0,0-16.33-38.75,18.45-43.65,0,0-54.78-70.82-64.11-93.22s26.61-37.35,49.48-6.54,88.86,122.16,99.6,127.29,45.76,37.36,58.83,65.37,4.37,43.27,24.28,54.63-40.62,69.09-75.42,71.66"></path><path class="cls-15" d="M1616.36,1930.93s-32.68-47.63-28-59.29,88.24-91.05,96.65-93.39,27.54,41.09,31.74,63-44.82,70.5-100.37,89.64"></path><path class="cls-16" d="M3066.42,1650.35s9.1-36.19,18-39.92,18.67,32.22,46.45,51.36c19.24,13.25,50.48,26.3,74.37,23.36,17.05-2.1-9.42,54.09-14.7,62.28s-128.29-43.16-124.09-97.08"></path><g class="cls-17"><rect class="cls-18" x="1590.11" y="1349.98" width="1605.78" height="952.3"></rect></g><path class="cls-19" d="M2219.75,1513.54c6.1-1.89,9.73-3,9.73-3s2.06-8.22,5.54-19l2,.55a288.36,288.36,0,0,0-8.15,47.7c11.35-22.17,29.61-46.42,62-51l3.58,10c-43.87,6.19-59.08,49.29-68.65,86.54-12.38-28.61-11.35-40.84-6.05-71.78"></path><path class="cls-19" d="M2327.19,1538.65l-9.79,11.76c-17.63-65.64-57.64-61-57.72-61,24.31-11.41,49-8.44,67.51,49.19"></path><path class="cls-19" d="M2596.79,1447.55l.8,4.44s2.95,2.72,8.31,6.94c-25,70.51-40,110.57-55.93,182.08-16.29-49.72-21.51-127.1-102.47-76.51,54.94-47.89,83.69-29,102.11,34.48,11.23-48.9,35.49-118.79,47.18-151.43"></path><path class="cls-19" d="M2774.83,1926.72l-9.38-16.51s25.15-111.78,33.08-131.38c0,0-18.21,93.61-23.7,147.89"></path><path class="cls-19" d="M2066.64,1872.32s21.48-130.25,39.22-167.61c0,0-25.21,122.32-28,171.81s-14.93,14-11.2-4.2"></path><path class="cls-20" d="M2294.76,1583.38s-41.93,130.76-67.14,308.16,205.43,182.08,205.43,182.08-43-113-42-119.51,4.66-381,56.95-449.13-99,68.16-153.22,78.4"></path><path class="cls-21" d="M2301.45,1037.61s-18.22,65.83-19.15,81.24,23.35,32.68,32.69,19.14,23.34-70.5,23.8-77.51-13.53-29.87-37.34-22.87"></path><path class="cls-22" d="M2314.2,1108.84s-46.37,4.87-52,31S2235.16,1264,2308,1272.44s35.94-151.26,6.21-163.6"></path><path class="cls-23" d="M2356,1090.85s-109.24-14-138.18-133.53c0,0,54.15,13.54,53.69-2.8-.11-3.62-22.51-160.78,22.42-82.18,9.32,16.34,17.73,21.95,20.53,5.14s19.61-44.82,34.08-39.68,19.15,43.41,93.86,61.15c0,0,169,1.87,183.94,114.85s-56.95,264.25-270.34,77"></path><path class="cls-24" d="M2527.55,1430.05s7.47-97.1,15.88-130.72c0,0-1.85-130.65,1.86-170.87s-.93-60.69-57.89-66.3S2359.48,1075.23,2324,1065c0,0-1.41,22.87-9.81,43.87s-38.75,221.3,75.16,261.45c0,0-2.8,116.72-55.09,161.54,0,0-42.49,42.94-42,61.63.46,18.45,3.21,129,114.1,90.14,7.25-85.52,14.65-101.22,26.57-147.39s94.63-106.16,94.63-106.16"></path><path class="cls-25" d="M2389.36,1370.29a380.41,380.41,0,0,1-4.27,43.59c47.19-12.79,102.2-55.81,102.2-55.81-54.16,25.21-97.93,12.22-97.93,12.22"></path><path class="cls-22" d="M2604.9,1111.84s-80.54,10.51-86.61,94.08,27.32,110.41,82.88,99.2c0,0-24.75-60.22-24.29-70.49s18.68-101.31,28-122.79"></path><path class="cls-26" d="M2604.9,1111.84c-96.77,43.83-63.89,198.9-3.73,193.28,4.68-.43,9-5.3,14.24-7.23,0,0,32.68-17.74,34.55-64s-22.41-107.38-45.06-122.09"></path><path class="cls-27" d="M2610.51,1091.07s-16.81,101.31-16.81,122.32,13.54,28.71,27.55,29.88,30.1-5.14,37.81-31.28,77-351.08-192.59-311.28c0,0,156.18,19.49,144,190.36"></path><path class="cls-28" d="M794.22,960.76h497.14A36.32,36.32,0,0,1,1327.58,997h0a36.33,36.33,0,0,1-36.22,36.23H794.22A36.33,36.33,0,0,1,758,997h0a36.32,36.32,0,0,1,36.22-36.22"></path><path class="cls-28" d="M794.22,1109.22h432.71a36.33,36.33,0,0,1,36.22,36.23h0a36.33,36.33,0,0,1-36.22,36.22H794.22A36.33,36.33,0,0,1,758,1145.45h0a36.33,36.33,0,0,1,36.22-36.23"></path><path class="cls-28" d="M794.22,1257.68H1162.5a36.32,36.32,0,0,1,36.22,36.23h0a36.31,36.31,0,0,1-36.22,36.22H794.22A36.32,36.32,0,0,1,758,1293.91h0a36.33,36.33,0,0,1,36.22-36.23"></path><path class="cls-4" d="M2005.57,1859.73h636.6a69.4,69.4,0,0,1,69.2,69.2v560a69.39,69.39,0,0,1-69.2,69.19h-636.6a69.39,69.39,0,0,1-69.2-69.19v-560a69.41,69.41,0,0,1,69.2-69.2"></path><path class="cls-29" d="M3093.19,1616.4s18.79-76.48,16.93-106.82,7.46-42.49,24.27-44.83c0,0,15.41-70,34.55-81.23s52.29-24.28,67.7-36.89,16.33,21.95-5.14,42.49-40.16,30.34-38.75,44.35l3.74,9.8s24.74-24.27,36.41-21,37.35,30.81,37.35,51.82c0,0,28.94-17.75,30.34,21.48v29.87s12.14,1.87,12.61,14.71-5.13,46-9.33,51.12-25.22,2.34-28.95-3.73c0,0-25.67,44.35-53.68,44.82,0,0-10.73,48.55-34.08,62.56s-103.64-41.55-94-78.52"></path><polygon class="cls-30" points="1718.11 1681.87 1741.15 1710.04 1397.61 1948.04 1374.58 1919.87 1718.11 1681.87"></polygon><rect class="cls-31" x="1332.81" y="2001.14" width="57.02" height="382.83"></rect><path class="cls-32" d="M1347.54,1901.23a63.49,63.49,0,1,1-63.49,63.49,63.49,63.49,0,0,1,63.49-63.49"></path><path class="cls-33" d="M1361.32,1898a63.49,63.49,0,1,1-63.5,63.49,63.5,63.5,0,0,1,63.5-63.49"></path><path class="cls-4" d="M1361.32,1939.51a21.94,21.94,0,1,1-22,21.94,21.94,21.94,0,0,1,22-21.94"></path><path class="cls-34" d="M2888.44,690.64a31.75,31.75,0,1,1-31.74,31.74,31.75,31.75,0,0,1,31.74-31.74"></path><path class="cls-35" d="M3042,690.64a31.75,31.75,0,1,1-31.74,31.74A31.75,31.75,0,0,1,3042,690.64"></path><path class="cls-13" d="M3195.63,690.64a31.75,31.75,0,1,1-31.74,31.74,31.75,31.75,0,0,1,31.74-31.74"></path><path class="cls-36" d="M1202.58,2370.71H1546.2a43.55,43.55,0,0,1,43.42,43.42v53.69H1159.16v-53.69a43.55,43.55,0,0,1,43.42-43.42"></path><path class="cls-37" d="M1189.51,2376.94h343.61a43.53,43.53,0,0,1,43.42,43.41V2474H1146.09v-53.69a43.54,43.54,0,0,1,43.42-43.41"></path><g class="cls-38"><rect class="cls-39" x="961.24" y="2420.36" width="2429.56" height="164.33"></rect></g><path class="cls-40" d="M1666.83,1687.8l43.59,57.36a24.09,24.09,0,0,1-4.6,33.65l-24.8,18.84a24.07,24.07,0,0,1-33.65-4.6l-43.58-57.36a24.09,24.09,0,0,1,4.59-33.65l24.8-18.84a24.07,24.07,0,0,1,33.65,4.6"></path><path class="cls-41" d="M1574.76,1595.82l274.45-84.88a81.17,81.17,0,0,1,101.23,53.42h0A81.17,81.17,0,0,1,1897,1665.59l-274.45,84.88a50.87,50.87,0,0,1-63.42-33.46l-17.86-57.78a50.84,50.84,0,0,1,33.45-63.41"></path><path class="cls-42" d="M1868.77,1507.46a81.48,81.48,0,0,1,73.51,38.78Z"></path><path class="cls-43" d="M1814.66,1521.63l19.26-6,119.57,63.1a80.37,80.37,0,0,1,.26,16.25Z"></path><path class="cls-44" d="M1768.54,1535.89l14.32-4.42,165.19,87.15a81.51,81.51,0,0,1-6.5,12.68l-174.71-92.17Z"></path><path class="cls-45" d="M1925.84,1649.63a80.39,80.39,0,0,1-13.1,9.2l-129.91-68.54,6.63-12.61Z"></path><polygon class="cls-46" points="1883.22 1669.86 1863.96 1675.82 1798.62 1641.34 1805.26 1628.73 1883.22 1669.86"></polygon><polygon class="cls-47" points="1824.36 1518.63 1843.61 1512.68 1796.81 1601.38 1784.2 1594.75 1824.36 1518.63"></polygon><path class="cls-48" d="M1873,1507.35a80.64,80.64,0,0,1,15.33,1.49l-75.76,143.6L1800,1645.8Z"></path><path class="cls-49" d="M1910.79,1516.75a80.56,80.56,0,0,1,12,7.75l-83.91,159.06-19.26,6Z"></path><path class="cls-50" d="M1939.9,1542.56a80.49,80.49,0,0,1,8.15,15.1L1890,1667.77l-19.26,6Z"></path><path class="cls-51" d="M1953.45,1597.86a81.79,81.79,0,0,1-27.06,51.3Z"></path><path class="cls-52" d="M1778,1517.13h0a18.28,18.28,0,0,1,22.8,12l46,148.7a18.29,18.29,0,0,1-12,22.81h0a18.27,18.27,0,0,1-22.8-12l-46-148.7a18.26,18.26,0,0,1,12-22.8"></path><path class="cls-53" d="M1596.63,1573.23l68.83-21.29a24.08,24.08,0,0,1,30,15.85l42.57,137.65a24.07,24.07,0,0,1-15.84,30l-68.83,21.28a24.08,24.08,0,0,1-30-15.84l-42.58-137.66a24.08,24.08,0,0,1,15.85-30"></path><path class="cls-54" d="M1662.13,1633.28a21.34,21.34,0,1,1-20.69,22,21.33,21.33,0,0,1,20.69-22"></path><polygon class="cls-55" points="2220.2 2118.07 2436.82 2118.07 2427.54 2164.14 2210.92 2164.14 2220.2 2118.07"></polygon><path class="cls-54" d="M209.66,2696.32a24.84,24.84,0,1,1-41,28C119,2651.77,84.06,2582,61.74,2514.94c-22.47-67.56-32.08-132.27-31-194.37a24.8,24.8,0,1,1,49.6.78c-1,56.73,7.86,116,28.5,178,20.79,62.52,53.71,128.06,100.84,196.94"></path><path class="cls-54" d="M1330.12,3302.82a24.8,24.8,0,1,1-8.75,48.83c-177.28-32-343.3-75.54-492-131.66-141.67-53.45-268-118.39-373.9-195.59q-36.79-26.8-69.32-54.77-32.67-28.12-62-58.18a24.83,24.83,0,1,1,35.6-34.62q27.66,28.4,58.67,55.07,32,27.51,66.2,52.43c102,74.35,224.41,137.17,362.23,189.16,146.13,55.14,309.19,98,483.28,129.33"></path><path class="cls-54" d="M3936,2996.82a24.84,24.84,0,1,1,29.38,40.07c-75,55.19-159.78,102.3-248.46,141.26-96.64,42.45-197.8,75.19-295.91,98.1-133.94,31.28-273.9,57.81-417.38,79.22s-290.35,37.7-438.4,48.5a24.86,24.86,0,0,1-3.5-49.6c146.62-10.71,292.37-26.87,434.7-48.11,142.08-21.2,280.68-47.47,413.29-78.45,95.52-22.31,193.79-54.08,287.36-95.19,85.33-37.48,166.87-82.79,238.92-135.8"></path><rect class="cls-56" x="2015.22" y="633.17" width="29.6" height="114.93" rx="1.5" transform="translate(4060.04 1381.27) rotate(-180)"></rect><rect class="cls-56" x="1383.26" y="633.17" width="29.6" height="114.93" rx="1.5" transform="translate(2796.11 1381.27) rotate(-180)"></rect><rect class="cls-56" x="1950.95" y="586.75" width="29.6" height="207.78" rx="1.5" transform="translate(3931.49 1381.27) rotate(180)"></rect><rect class="cls-56" x="1886.67" y="638.6" width="29.6" height="104.07" rx="1.5" transform="translate(3802.94 1381.27) rotate(-180)"></rect><rect class="cls-56" x="1822.39" y="592.7" width="29.6" height="195.87" rx="1.5" transform="translate(3674.38 1381.27) rotate(180)"></rect><rect class="cls-56" x="1758.12" y="539.14" width="29.6" height="303" rx="1.5" transform="translate(3545.83 1381.27) rotate(180)"></rect><rect class="cls-56" x="1694.58" y="633.17" width="29.6" height="114.93" rx="1.5" transform="translate(3418.76 1381.27) rotate(-180)"></rect><rect class="cls-56" x="1630.3" y="586.75" width="29.6" height="207.78" rx="1.5" transform="translate(3290.2 1381.27) rotate(180)"></rect><rect class="cls-56" x="1566.03" y="638.6" width="29.6" height="104.07" rx="1.5" transform="translate(3161.65 1381.27) rotate(-180)"></rect><rect class="cls-56" x="1501.75" y="592.7" width="29.6" height="195.87" rx="1.5" transform="translate(3033.1 1381.27) rotate(180)"></rect><rect class="cls-56" x="1437.47" y="539.14" width="29.6" height="303" rx="1.5" transform="translate(2904.55 1381.27) rotate(180)"></rect></svg>